<?xml version="1.0" standalone="no"?>
<!DOCTYPE svg PUBLIC "-//W3C//DTD SVG 1.1//EN" "http://www.w3.org/Graphics/SVG/1.1/DTD/svg11.dtd">
<svg version="1.1" width="1200" height="454" onload="init(evt)" viewBox="0 0 1200 454" xmlns="http://www.w3.org/2000/svg" xmlns:xlink="http://www.w3.org/1999/xlink">
<!-- Flame graph stack visualization. See https://github.com/brendangregg/FlameGraph for latest version, and http://www.brendangregg.com/flamegraphs.html for examples. -->
<!-- NOTES:  -->
<defs>
	<linearGradient id="background" y1="0" y2="1" x1="0" x2="0" >
		<stop stop-color="#eeeeee" offset="5%" />
		<stop stop-color="#eeeeb0" offset="95%" />
	</linearGradient>
</defs>
<style type="text/css">
	text { font-family:Verdana; font-size:12px; fill:rgb(0,0,0); }
	#search, #ignorecase { opacity:0.1; cursor:pointer; }
	#search:hover, #search.show, #ignorecase:hover, #ignorecase.show { opacity:1; }
	#subtitle { text-anchor:middle; font-color:rgb(160,160,160); }
	#title { text-anchor:middle; font-size:17px}
	#unzoom { cursor:pointer; }
	#frames > *:hover { stroke:black; stroke-width:0.5; cursor:pointer; }
	.hide { display:none; }
	.parent { opacity:0.5; }
</style>
<script type="text/ecmascript">
<![CDATA[
	"use strict";
	var details, searchbtn, unzoombtn, matchedtxt, svg, searching, currentSearchTerm, ignorecase, ignorecaseBtn;
	function init(evt) {
		details = document.getElementById("details").firstChild;
		searchbtn = document.getElementById("search");
		ignorecaseBtn = document.getElementById("ignorecase");
		unzoombtn = document.getElementById("unzoom");
		matchedtxt = document.getElementById("matched");
		svg = document.getElementsByTagName("svg")[0];
		searching = 0;
		currentSearchTerm = null;

		// use GET parameters to restore a flamegraphs state.
		var params = get_params();
		if (params.x && params.y)
			zoom(find_group(document.querySelector('[x="' + params.x + '"][y="' + params.y + '"]')));
                if (params.s) search(params.s);
	}

	// event listeners
	window.addEventListener("click", function(e) {
		var target = find_group(e.target);
		if (target) {
			if (target.nodeName == "a") {
				if (e.ctrlKey === false) return;
				e.preventDefault();
			}
			if (target.classList.contains("parent")) unzoom(true);
			zoom(target);
			if (!document.querySelector('.parent')) {
				// we have basically done a clearzoom so clear the url
				var params = get_params();
				if (params.x) delete params.x;
				if (params.y) delete params.y;
				history.replaceState(null, null, parse_params(params));
				unzoombtn.classList.add("hide");
				return;
			}

			// set parameters for zoom state
			var el = target.querySelector("rect");
			if (el && el.attributes && el.attributes.y && el.attributes._orig_x) {
				var params = get_params()
				params.x = el.attributes._orig_x.value;
				params.y = el.attributes.y.value;
				history.replaceState(null, null, parse_params(params));
			}
		}
		else if (e.target.id == "unzoom") clearzoom();
		else if (e.target.id == "search") search_prompt();
		else if (e.target.id == "ignorecase") toggle_ignorecase();
	}, false)

	// mouse-over for info
	// show
	window.addEventListener("mouseover", function(e) {
		var target = find_group(e.target);
		if (target) details.nodeValue = "Function: " + g_to_text(target);
	}, false)

	// clear
	window.addEventListener("mouseout", function(e) {
		var target = find_group(e.target);
		if (target) details.nodeValue = ' ';
	}, false)

	// ctrl-F for search
	// ctrl-I to toggle case-sensitive search
	window.addEventListener("keydown",function (e) {
		if (e.keyCode === 114 || (e.ctrlKey && e.keyCode === 70)) {
			e.preventDefault();
			search_prompt();
		}
		else if (e.ctrlKey && e.keyCode === 73) {
			e.preventDefault();
			toggle_ignorecase();
		}
	}, false)

	// functions
	function get_params() {
		var params = {};
		var paramsarr = window.location.search.substr(1).split('&');
		for (var i = 0; i < paramsarr.length; ++i) {
			var tmp = paramsarr[i].split("=");
			if (!tmp[0] || !tmp[1]) continue;
			params[tmp[0]]  = decodeURIComponent(tmp[1]);
		}
		return params;
	}
	function parse_params(params) {
		var uri = "?";
		for (var key in params) {
			uri += key + '=' + encodeURIComponent(params[key]) + '&';
		}
		if (uri.slice(-1) == "&")
			uri = uri.substring(0, uri.length - 1);
		if (uri == '?')
			uri = window.location.href.split('?')[0];
		return uri;
	}
	function find_child(node, selector) {
		var children = node.querySelectorAll(selector);
		if (children.length) return children[0];
	}
	function find_group(node) {
		var parent = node.parentElement;
		if (!parent) return;
		if (parent.id == "frames") return node;
		return find_group(parent);
	}
	function orig_save(e, attr, val) {
		if (e.attributes["_orig_" + attr] != undefined) return;
		if (e.attributes[attr] == undefined) return;
		if (val == undefined) val = e.attributes[attr].value;
		e.setAttribute("_orig_" + attr, val);
	}
	function orig_load(e, attr) {
		if (e.attributes["_orig_"+attr] == undefined) return;
		e.attributes[attr].value = e.attributes["_orig_" + attr].value;
		e.removeAttribute("_orig_"+attr);
	}
	function g_to_text(e) {
		var text = find_child(e, "title").firstChild.nodeValue;
		return (text)
	}
	function g_to_func(e) {
		var func = g_to_text(e);
		// if there's any manipulation we want to do to the function
		// name before it's searched, do it here before returning.
		return (func);
	}
	function update_text(e) {
		var r = find_child(e, "rect");
		var t = find_child(e, "text");
		var w = parseFloat(r.attributes.width.value) -3;
		var txt = find_child(e, "title").textContent.replace(/\([^(]*\)$/,"");
		t.attributes.x.value = parseFloat(r.attributes.x.value) + 3;

		// Smaller than this size won't fit anything
		if (w < 2 * 12 * 0.59) {
			t.textContent = "";
			return;
		}

		t.textContent = txt;
		var sl = t.getSubStringLength(0, txt.length);
		// check if only whitespace or if we can fit the entire string into width w
		if (/^ *$/.test(txt) || sl < w)
			return;

		// this isn't perfect, but gives a good starting point
		// and avoids calling getSubStringLength too often
		var start = Math.floor((w/sl) * txt.length);
		for (var x = start; x > 0; x = x-2) {
			if (t.getSubStringLength(0, x + 2) <= w) {
				t.textContent = txt.substring(0, x) + "..";
				return;
			}
		}
		t.textContent = "";
	}

	// zoom
	function zoom_reset(e) {
		if (e.attributes != undefined) {
			orig_load(e, "x");
			orig_load(e, "width");
		}
		if (e.childNodes == undefined) return;
		for (var i = 0, c = e.childNodes; i < c.length; i++) {
			zoom_reset(c[i]);
		}
	}
	function zoom_child(e, x, ratio) {
		if (e.attributes != undefined) {
			if (e.attributes.x != undefined) {
				orig_save(e, "x");
				e.attributes.x.value = (parseFloat(e.attributes.x.value) - x - 10) * ratio + 10;
				if (e.tagName == "text")
					e.attributes.x.value = find_child(e.parentNode, "rect[x]").attributes.x.value + 3;
			}
			if (e.attributes.width != undefined) {
				orig_save(e, "width");
				e.attributes.width.value = parseFloat(e.attributes.width.value) * ratio;
			}
		}

		if (e.childNodes == undefined) return;
		for (var i = 0, c = e.childNodes; i < c.length; i++) {
			zoom_child(c[i], x - 10, ratio);
		}
	}
	function zoom_parent(e) {
		if (e.attributes) {
			if (e.attributes.x != undefined) {
				orig_save(e, "x");
				e.attributes.x.value = 10;
			}
			if (e.attributes.width != undefined) {
				orig_save(e, "width");
				e.attributes.width.value = parseInt(svg.width.baseVal.value) - (10 * 2);
			}
		}
		if (e.childNodes == undefined) return;
		for (var i = 0, c = e.childNodes; i < c.length; i++) {
			zoom_parent(c[i]);
		}
	}
	function zoom(node) {
		var attr = find_child(node, "rect").attributes;
		var width = parseFloat(attr.width.value);
		var xmin = parseFloat(attr.x.value);
		var xmax = parseFloat(xmin + width);
		var ymin = parseFloat(attr.y.value);
		var ratio = (svg.width.baseVal.value - 2 * 10) / width;

		// XXX: Workaround for JavaScript float issues (fix me)
		var fudge = 0.0001;

		unzoombtn.classList.remove("hide");

		var el = document.getElementById("frames").children;
		for (var i = 0; i < el.length; i++) {
			var e = el[i];
			var a = find_child(e, "rect").attributes;
			var ex = parseFloat(a.x.value);
			var ew = parseFloat(a.width.value);
			var upstack;
			// Is it an ancestor
			if (0 == 0) {
				upstack = parseFloat(a.y.value) > ymin;
			} else {
				upstack = parseFloat(a.y.value) < ymin;
			}
			if (upstack) {
				// Direct ancestor
				if (ex <= xmin && (ex+ew+fudge) >= xmax) {
					e.classList.add("parent");
					zoom_parent(e);
					update_text(e);
				}
				// not in current path
				else
					e.classList.add("hide");
			}
			// Children maybe
			else {
				// no common path
				if (ex < xmin || ex + fudge >= xmax) {
					e.classList.add("hide");
				}
				else {
					zoom_child(e, xmin, ratio);
					update_text(e);
				}
			}
		}
		search();
	}
	function unzoom(dont_update_text) {
		unzoombtn.classList.add("hide");
		var el = document.getElementById("frames").children;
		for(var i = 0; i < el.length; i++) {
			el[i].classList.remove("parent");
			el[i].classList.remove("hide");
			zoom_reset(el[i]);
			if(!dont_update_text) update_text(el[i]);
		}
		search();
	}
	function clearzoom() {
		unzoom();

		// remove zoom state
		var params = get_params();
		if (params.x) delete params.x;
		if (params.y) delete params.y;
		history.replaceState(null, null, parse_params(params));
	}

	// search
	function toggle_ignorecase() {
		ignorecase = !ignorecase;
		if (ignorecase) {
			ignorecaseBtn.classList.add("show");
		} else {
			ignorecaseBtn.classList.remove("show");
		}
		reset_search();
		search();
	}
	function reset_search() {
		var el = document.querySelectorAll("#frames rect");
		for (var i = 0; i < el.length; i++) {
			orig_load(el[i], "fill")
		}
		var params = get_params();
		delete params.s;
		history.replaceState(null, null, parse_params(params));
	}
	function search_prompt() {
		if (!searching) {
			var term = prompt("Enter a search term (regexp " +
			    "allowed, eg: ^ext4_)"
			    + (ignorecase ? ", ignoring case" : "")
			    + "\nPress Ctrl-i to toggle case sensitivity", "");
			if (term != null) search(term);
		} else {
			reset_search();
			searching = 0;
			currentSearchTerm = null;
			searchbtn.classList.remove("show");
			searchbtn.firstChild.nodeValue = "Search"
			matchedtxt.classList.add("hide");
			matchedtxt.firstChild.nodeValue = ""
		}
	}
	function search(term) {
		if (term) currentSearchTerm = term;

		var re = new RegExp(currentSearchTerm, ignorecase ? 'i' : '');
		var el = document.getElementById("frames").children;
		var matches = new Object();
		var maxwidth = 0;
		for (var i = 0; i < el.length; i++) {
			var e = el[i];
			var func = g_to_func(e);
			var rect = find_child(e, "rect");
			if (func == null || rect == null)
				continue;

			// Save max width. Only works as we have a root frame
			var w = parseFloat(rect.attributes.width.value);
			if (w > maxwidth)
				maxwidth = w;

			if (func.match(re)) {
				// highlight
				var x = parseFloat(rect.attributes.x.value);
				orig_save(rect, "fill");
				rect.attributes.fill.value = "rgb(230,0,230)";

				// remember matches
				if (matches[x] == undefined) {
					matches[x] = w;
				} else {
					if (w > matches[x]) {
						// overwrite with parent
						matches[x] = w;
					}
				}
				searching = 1;
			}
		}
		if (!searching)
			return;
		var params = get_params();
		params.s = currentSearchTerm;
		history.replaceState(null, null, parse_params(params));

		searchbtn.classList.add("show");
		searchbtn.firstChild.nodeValue = "Reset Search";

		// calculate percent matched, excluding vertical overlap
		var count = 0;
		var lastx = -1;
		var lastw = 0;
		var keys = Array();
		for (k in matches) {
			if (matches.hasOwnProperty(k))
				keys.push(k);
		}
		// sort the matched frames by their x location
		// ascending, then width descending
		keys.sort(function(a, b){
			return a - b;
		});
		// Step through frames saving only the biggest bottom-up frames
		// thanks to the sort order. This relies on the tree property
		// where children are always smaller than their parents.
		var fudge = 0.0001;	// JavaScript floating point
		for (var k in keys) {
			var x = parseFloat(keys[k]);
			var w = matches[keys[k]];
			if (x >= lastx + lastw - fudge) {
				count += w;
				lastx = x;
				lastw = w;
			}
		}
		// display matched percent
		matchedtxt.classList.remove("hide");
		var pct = 100 * count / maxwidth;
		if (pct != 100) pct = pct.toFixed(1)
		matchedtxt.firstChild.nodeValue = "Matched: " + pct + "%";
	}
]]>
</script>
<rect x="0.0" y="0" width="1200.0" height="454.0" fill="url(#background)"  />
<text id="title" x="600.00" y="24" >Flame Graph</text>
<text id="details" x="10.00" y="437" > </text>
<text id="unzoom" x="10.00" y="24" class="hide">Reset Zoom</text>
<text id="search" x="1090.00" y="24" >Search</text>
<text id="ignorecase" x="1174.00" y="24" >ic</text>
<text id="matched" x="1090.00" y="437" > </text>
<g id="frames">
<g >
<title>VMThread::loop (208,704,166 samples, 0.03%)</title><rect x="1189.6" y="325" width="0.4" height="15.0" fill="rgb(218,218,65)" rx="2" ry="2" />
<text  x="1192.61" y="335.5" ></text>
</g>
<g >
<title>asm_sysvec_apic_timer_interrupt (353,595,709 samples, 0.06%)</title><rect x="729.4" y="357" width="0.7" height="15.0" fill="rgb(234,100,100)" rx="2" ry="2" />
<text  x="732.42" y="367.5" ></text>
</g>
<g >
<title>__sysvec_apic_timer_interrupt (211,226,328 samples, 0.03%)</title><rect x="729.5" y="325" width="0.4" height="15.0" fill="rgb(231,95,95)" rx="2" ry="2" />
<text  x="732.48" y="335.5" ></text>
</g>
<g >
<title>updateBytesCRC32 (2,212,277,575 samples, 0.35%)</title><rect x="1182.1" y="341" width="4.1" height="15.0" fill="rgb(236,102,102)" rx="2" ry="2" />
<text  x="1185.06" y="351.5" ></text>
</g>
<g >
<title>VMThread::run (208,704,166 samples, 0.03%)</title><rect x="1189.6" y="341" width="0.4" height="15.0" fill="rgb(218,218,65)" rx="2" ry="2" />
<text  x="1192.61" y="351.5" ></text>
</g>
<g >
<title>__sysvec_call_function_single (913,230,196 samples, 0.14%)</title><rect x="730.1" y="325" width="1.7" height="15.0" fill="rgb(231,95,95)" rx="2" ry="2" />
<text  x="733.07" y="335.5" ></text>
</g>
<g >
<title>JavaThread::oops_do (152,589,279 samples, 0.02%)</title><rect x="1189.3" y="309" width="0.3" height="15.0" fill="rgb(203,203,60)" rx="2" ry="2" />
<text  x="1192.33" y="319.5" ></text>
</g>
<g >
<title>__flush_smp_call_function_queue (913,230,196 samples, 0.14%)</title><rect x="730.1" y="293" width="1.7" height="15.0" fill="rgb(232,97,97)" rx="2" ry="2" />
<text  x="733.07" y="303.5" ></text>
</g>
<g >
<title>InlineTree::check_can_parse (213,243,399 samples, 0.03%)</title><rect x="1186.4" y="229" width="0.4" height="15.0" fill="rgb(224,224,67)" rx="2" ry="2" />
<text  x="1189.37" y="239.5" ></text>
</g>
<g >
<title>Lspec/benchmarks/compress/Decompressor:::decompress (24,114,857,540 samples, 3.80%)</title><rect x="1137.2" y="357" width="44.9" height="15.0" fill="rgb(87,234,87)" rx="2" ry="2" />
<text  x="1140.22" y="367.5" >Lspe..</text>
</g>
<g >
<title>sysvec_apic_timer_interrupt (318,255,613 samples, 0.05%)</title><rect x="729.5" y="341" width="0.6" height="15.0" fill="rgb(240,108,108)" rx="2" ry="2" />
<text  x="732.48" y="351.5" ></text>
</g>
<g >
<title>JavaCalls::call_virtual (70,676,720 samples, 0.01%)</title><rect x="1186.2" y="277" width="0.2" height="15.0" fill="rgb(203,203,60)" rx="2" ry="2" />
<text  x="1189.24" y="287.5" ></text>
</g>
<g >
<title>java_start (208,704,166 samples, 0.03%)</title><rect x="1189.6" y="357" width="0.4" height="15.0" fill="rgb(224,86,86)" rx="2" ry="2" />
<text  x="1192.61" y="367.5" ></text>
</g>
<g >
<title>ciTypeFlow::StateVector::do_getstatic (213,243,399 samples, 0.03%)</title><rect x="1186.4" y="117" width="0.4" height="15.0" fill="rgb(205,205,61)" rx="2" ry="2" />
<text  x="1189.37" y="127.5" ></text>
</g>
<g >
<title>exit_to_user_mode_prepare (88,439,444 samples, 0.01%)</title><rect x="1105.3" y="293" width="0.1" height="15.0" fill="rgb(234,99,99)" rx="2" ry="2" />
<text  x="1108.26" y="303.5" ></text>
</g>
<g >
<title>psi_task_switch (88,439,444 samples, 0.01%)</title><rect x="1105.3" y="229" width="0.1" height="15.0" fill="rgb(238,105,105)" rx="2" ry="2" />
<text  x="1108.26" y="239.5" ></text>
</g>
<g >
<title>exit_to_user_mode_prepare (71,742,953 samples, 0.01%)</title><rect x="729.9" y="293" width="0.2" height="15.0" fill="rgb(234,99,99)" rx="2" ry="2" />
<text  x="732.94" y="303.5" ></text>
</g>
<g >
<title>JavaCalls::call_virtual (70,676,720 samples, 0.01%)</title><rect x="1186.2" y="293" width="0.2" height="15.0" fill="rgb(203,203,60)" rx="2" ry="2" />
<text  x="1189.24" y="303.5" ></text>
</g>
<g >
<title>OldToYoungRootsTask::do_it (387,669,134 samples, 0.06%)</title><rect x="1187.1" y="325" width="0.7" height="15.0" fill="rgb(198,198,58)" rx="2" ry="2" />
<text  x="1190.08" y="335.5" ></text>
</g>
<g >
<title>irqentry_exit (71,742,953 samples, 0.01%)</title><rect x="729.9" y="325" width="0.2" height="15.0" fill="rgb(236,103,103)" rx="2" ry="2" />
<text  x="732.94" y="335.5" ></text>
</g>
<g >
<title>MarkingCodeBlobClosure::do_code_blob (152,589,279 samples, 0.02%)</title><rect x="1189.3" y="293" width="0.3" height="15.0" fill="rgb(201,201,59)" rx="2" ry="2" />
<text  x="1192.33" y="303.5" ></text>
</g>
<g >
<title>SpinPause (442,742,936 samples, 0.07%)</title><rect x="1188.5" y="309" width="0.8" height="15.0" fill="rgb(239,108,108)" rx="2" ry="2" />
<text  x="1191.50" y="319.5" ></text>
</g>
<g >
<title>ciEnv::get_field_by_index (213,243,399 samples, 0.03%)</title><rect x="1186.4" y="85" width="0.4" height="15.0" fill="rgb(198,198,58)" rx="2" ry="2" />
<text  x="1189.37" y="95.5" ></text>
</g>
<g >
<title>irqentry_exit (88,439,444 samples, 0.01%)</title><rect x="1105.3" y="325" width="0.1" height="15.0" fill="rgb(236,103,103)" rx="2" ry="2" />
<text  x="1108.26" y="335.5" ></text>
</g>
<g >
<title>hrtimer_interrupt (211,226,328 samples, 0.03%)</title><rect x="729.5" y="309" width="0.4" height="15.0" fill="rgb(236,102,102)" rx="2" ry="2" />
<text  x="732.48" y="319.5" ></text>
</g>
<g >
<title>event_function (913,230,196 samples, 0.14%)</title><rect x="730.1" y="261" width="1.7" height="15.0" fill="rgb(239,107,107)" rx="2" ry="2" />
<text  x="733.07" y="271.5" ></text>
</g>
<g >
<title>nmethod::test_set_oops_do_mark (152,589,279 samples, 0.02%)</title><rect x="1189.3" y="277" width="0.3" height="15.0" fill="rgb(214,214,64)" rx="2" ry="2" />
<text  x="1192.33" y="287.5" ></text>
</g>
<g >
<title>CompileBroker::invoke_compiler_on_method (377,682,297 samples, 0.06%)</title><rect x="1186.4" y="293" width="0.7" height="15.0" fill="rgb(214,214,64)" rx="2" ry="2" />
<text  x="1189.37" y="303.5" ></text>
</g>
<g >
<title>thread_entry (70,676,720 samples, 0.01%)</title><rect x="1186.2" y="309" width="0.2" height="15.0" fill="rgb(232,97,97)" rx="2" ry="2" />
<text  x="1189.24" y="319.5" ></text>
</g>
<g >
<title>CallGenerator::for_inline (213,243,399 samples, 0.03%)</title><rect x="1186.4" y="245" width="0.4" height="15.0" fill="rgb(205,205,61)" rx="2" ry="2" />
<text  x="1189.37" y="255.5" ></text>
</g>
<g >
<title>ciBytecodeStream::get_field (213,243,399 samples, 0.03%)</title><rect x="1186.4" y="101" width="0.4" height="15.0" fill="rgb(200,200,59)" rx="2" ry="2" />
<text  x="1189.37" y="111.5" ></text>
</g>
<g >
<title>CardTableExtension::scavenge_contents_parallel (387,669,134 samples, 0.06%)</title><rect x="1187.1" y="309" width="0.7" height="15.0" fill="rgb(201,201,59)" rx="2" ry="2" />
<text  x="1190.08" y="319.5" ></text>
</g>
<g >
<title>StealTask::do_it (821,489,355 samples, 0.13%)</title><rect x="1187.8" y="325" width="1.5" height="15.0" fill="rgb(213,213,63)" rx="2" ry="2" />
<text  x="1190.80" y="335.5" ></text>
</g>
<g >
<title>Lspec/benchmarks/compress/Compress:::performAction (70,639,879 samples, 0.01%)</title><rect x="1105.6" y="357" width="0.1" height="15.0" fill="rgb(87,234,87)" rx="2" ry="2" />
<text  x="1108.55" y="367.5" ></text>
</g>
<g >
<title>ciTypeFlow::flow_block (213,243,399 samples, 0.03%)</title><rect x="1186.4" y="149" width="0.4" height="15.0" fill="rgb(205,205,61)" rx="2" ry="2" />
<text  x="1189.37" y="159.5" ></text>
</g>
<g >
<title>__hrtimer_run_queues (106,000,081 samples, 0.02%)</title><rect x="1105.1" y="293" width="0.2" height="15.0" fill="rgb(230,94,94)" rx="2" ry="2" />
<text  x="1108.06" y="303.5" ></text>
</g>
<g >
<title>start_thread (377,682,297 samples, 0.06%)</title><rect x="1186.4" y="373" width="0.7" height="15.0" fill="rgb(237,104,104)" rx="2" ry="2" />
<text  x="1189.37" y="383.5" ></text>
</g>
<g >
<title>ciField::ciField (213,243,399 samples, 0.03%)</title><rect x="1186.4" y="69" width="0.4" height="15.0" fill="rgb(197,197,58)" rx="2" ry="2" />
<text  x="1189.37" y="79.5" ></text>
</g>
<g >
<title>Lspec/benchmarks/compress/Compressor:::output (50,696,488,739 samples, 7.99%)</title><rect x="732.6" y="373" width="94.2" height="15.0" fill="rgb(87,234,87)" rx="2" ry="2" />
<text  x="735.56" y="383.5" >Lspec/bench..</text>
</g>
<g >
<title>Compile::Compile (377,682,297 samples, 0.06%)</title><rect x="1186.4" y="261" width="0.7" height="15.0" fill="rgb(214,214,64)" rx="2" ry="2" />
<text  x="1189.37" y="271.5" ></text>
</g>
<g >
<title>GC_task_thread# (1,365,598,775 samples, 0.22%)</title><rect x="1187.1" y="389" width="2.5" height="15.0" fill="rgb(243,113,113)" rx="2" ry="2" />
<text  x="1190.07" y="399.5" ></text>
</g>
<g >
<title>tick_sched_timer (70,241,157 samples, 0.01%)</title><rect x="729.7" y="277" width="0.1" height="15.0" fill="rgb(233,99,99)" rx="2" ry="2" />
<text  x="732.68" y="287.5" ></text>
</g>
<g >
<title>irqentry_exit_to_user_mode (88,439,444 samples, 0.01%)</title><rect x="1105.3" y="309" width="0.1" height="15.0" fill="rgb(236,103,103)" rx="2" ry="2" />
<text  x="1108.26" y="319.5" ></text>
</g>
<g >
<title>PSPromotionManager::drain_stacks_depth (378,746,419 samples, 0.06%)</title><rect x="1187.8" y="309" width="0.7" height="15.0" fill="rgb(216,216,65)" rx="2" ry="2" />
<text  x="1190.80" y="319.5" ></text>
</g>
<g >
<title>java_start (1,361,747,768 samples, 0.21%)</title><rect x="1187.1" y="357" width="2.5" height="15.0" fill="rgb(224,86,86)" rx="2" ry="2" />
<text  x="1190.08" y="367.5" ></text>
</g>
<g >
<title>start_thread (1,361,747,768 samples, 0.21%)</title><rect x="1187.1" y="373" width="2.5" height="15.0" fill="rgb(237,104,104)" rx="2" ry="2" />
<text  x="1190.08" y="383.5" ></text>
</g>
<g >
<title>Interpreter (70,676,720 samples, 0.01%)</title><rect x="1186.2" y="229" width="0.2" height="15.0" fill="rgb(243,112,112)" rx="2" ry="2" />
<text  x="1189.24" y="239.5" ></text>
</g>
<g >
<title>JavaThread::thread_main_inner (377,682,297 samples, 0.06%)</title><rect x="1186.4" y="325" width="0.7" height="15.0" fill="rgb(203,203,60)" rx="2" ry="2" />
<text  x="1189.37" y="335.5" ></text>
</g>
<g >
<title>generic_smp_call_function_single_interrupt (913,230,196 samples, 0.14%)</title><rect x="730.1" y="309" width="1.7" height="15.0" fill="rgb(245,115,115)" rx="2" ry="2" />
<text  x="733.07" y="319.5" ></text>
</g>
<g >
<title>Lspec/benchmarks/compress/Compress:::performAction (388,154,634,408 samples, 61.17%)</title><rect x="10.0" y="373" width="721.8" height="15.0" fill="rgb(87,234,87)" rx="2" ry="2" />
<text  x="13.00" y="383.5" >Lspec/benchmarks/compress/Compress:::performAction</text>
</g>
<g >
<title>__schedule (71,742,953 samples, 0.01%)</title><rect x="729.9" y="245" width="0.2" height="15.0" fill="rgb(231,95,95)" rx="2" ry="2" />
<text  x="732.94" y="255.5" ></text>
</g>
<g >
<title>ciTypeFlow::do_flow (213,243,399 samples, 0.03%)</title><rect x="1186.4" y="197" width="0.4" height="15.0" fill="rgb(205,205,61)" rx="2" ry="2" />
<text  x="1189.37" y="207.5" ></text>
</g>
<g >
<title>ciMethod::get_flow_analysis (213,243,399 samples, 0.03%)</title><rect x="1186.4" y="213" width="0.4" height="15.0" fill="rgb(201,201,59)" rx="2" ry="2" />
<text  x="1189.37" y="223.5" ></text>
</g>
<g >
<title>DebugInformationRecorder::DebugInformationRecorder (164,438,898 samples, 0.03%)</title><rect x="1186.8" y="229" width="0.3" height="15.0" fill="rgb(210,210,62)" rx="2" ry="2" />
<text  x="1189.77" y="239.5" ></text>
</g>
<g >
<title>VM_Thread (209,015,996 samples, 0.03%)</title><rect x="1189.6" y="389" width="0.4" height="15.0" fill="rgb(235,100,100)" rx="2" ry="2" />
<text  x="1192.61" y="399.5" ></text>
</g>
<g >
<title>JavaThread::run (70,676,720 samples, 0.01%)</title><rect x="1186.2" y="341" width="0.2" height="15.0" fill="rgb(203,203,60)" rx="2" ry="2" />
<text  x="1189.24" y="351.5" ></text>
</g>
<g >
<title>remote_function (913,230,196 samples, 0.14%)</title><rect x="730.1" y="277" width="1.7" height="15.0" fill="rgb(244,114,114)" rx="2" ry="2" />
<text  x="733.07" y="287.5" ></text>
</g>
<g >
<title>C2Compiler::compile_method (377,682,297 samples, 0.06%)</title><rect x="1186.4" y="277" width="0.7" height="15.0" fill="rgb(203,203,60)" rx="2" ry="2" />
<text  x="1189.37" y="287.5" ></text>
</g>
<g >
<title>InstanceKlass::find_local_field (213,243,399 samples, 0.03%)</title><rect x="1186.4" y="37" width="0.4" height="15.0" fill="rgb(218,218,65)" rx="2" ry="2" />
<text  x="1189.37" y="47.5" ></text>
</g>
<g >
<title>CompileBroker::compiler_thread_loop (377,682,297 samples, 0.06%)</title><rect x="1186.4" y="309" width="0.7" height="15.0" fill="rgb(214,214,64)" rx="2" ry="2" />
<text  x="1189.37" y="319.5" ></text>
</g>
<g >
<title>__memmove_sse2_unaligned_erms (260,724,164 samples, 0.04%)</title><rect x="1188.0" y="293" width="0.5" height="15.0" fill="rgb(236,102,102)" rx="2" ry="2" />
<text  x="1191.02" y="303.5" ></text>
</g>
<g >
<title>ObjectStartArray::object_starts_in_range (259,451,637 samples, 0.04%)</title><rect x="1187.3" y="293" width="0.5" height="15.0" fill="rgb(193,193,56)" rx="2" ry="2" />
<text  x="1190.32" y="303.5" ></text>
</g>
<g >
<title>arrayof_jint_fill (423,987,802 samples, 0.07%)</title><rect x="731.8" y="357" width="0.8" height="15.0" fill="rgb(232,96,96)" rx="2" ry="2" />
<text  x="734.77" y="367.5" ></text>
</g>
<g >
<title>__hrtimer_run_queues (176,001,474 samples, 0.03%)</title><rect x="729.5" y="293" width="0.3" height="15.0" fill="rgb(230,94,94)" rx="2" ry="2" />
<text  x="732.48" y="303.5" ></text>
</g>
<g >
<title>hrtimer_interrupt (106,000,081 samples, 0.02%)</title><rect x="1105.1" y="309" width="0.2" height="15.0" fill="rgb(236,102,102)" rx="2" ry="2" />
<text  x="1108.06" y="319.5" ></text>
</g>
<g >
<title>exit_to_user_mode_loop (88,439,444 samples, 0.01%)</title><rect x="1105.3" y="277" width="0.1" height="15.0" fill="rgb(234,99,99)" rx="2" ry="2" />
<text  x="1108.26" y="287.5" ></text>
</g>
<g >
<title>asm_sysvec_apic_timer_interrupt (194,439,525 samples, 0.03%)</title><rect x="1105.1" y="357" width="0.3" height="15.0" fill="rgb(234,100,100)" rx="2" ry="2" />
<text  x="1108.06" y="367.5" ></text>
</g>
<g >
<title>InstanceKlass::oop_push_contents (118,022,255 samples, 0.02%)</title><rect x="1187.8" y="277" width="0.2" height="15.0" fill="rgb(218,218,65)" rx="2" ry="2" />
<text  x="1190.80" y="287.5" ></text>
</g>
<g >
<title>call_stub (70,676,720 samples, 0.01%)</title><rect x="1186.2" y="245" width="0.2" height="15.0" fill="rgb(226,89,89)" rx="2" ry="2" />
<text  x="1189.24" y="255.5" ></text>
</g>
<g >
<title>Compile::Init (164,438,898 samples, 0.03%)</title><rect x="1186.8" y="245" width="0.3" height="15.0" fill="rgb(214,214,64)" rx="2" ry="2" />
<text  x="1189.77" y="255.5" ></text>
</g>
<g >
<title>resource_allocate_bytes (164,438,898 samples, 0.03%)</title><rect x="1186.8" y="213" width="0.3" height="15.0" fill="rgb(239,107,107)" rx="2" ry="2" />
<text  x="1189.77" y="223.5" ></text>
</g>
<g >
<title>GCTaskThread::run (1,361,747,768 samples, 0.21%)</title><rect x="1187.1" y="341" width="2.5" height="15.0" fill="rgb(226,226,68)" rx="2" ry="2" />
<text  x="1190.08" y="351.5" ></text>
</g>
<g >
<title>start_thread (70,676,720 samples, 0.01%)</title><rect x="1186.2" y="373" width="0.2" height="15.0" fill="rgb(237,104,104)" rx="2" ry="2" />
<text  x="1189.24" y="383.5" ></text>
</g>
<g >
<title>Lspec/benchmarks/compress/Harness:::runCompress (2,212,277,575 samples, 0.35%)</title><rect x="1182.1" y="357" width="4.1" height="15.0" fill="rgb(87,234,87)" rx="2" ry="2" />
<text  x="1185.06" y="367.5" ></text>
</g>
<g >
<title>InstanceKlass::find_field (213,243,399 samples, 0.03%)</title><rect x="1186.4" y="53" width="0.4" height="15.0" fill="rgb(218,218,65)" rx="2" ry="2" />
<text  x="1189.37" y="63.5" ></text>
</g>
<g >
<title>asm_sysvec_call_function_single (913,230,196 samples, 0.14%)</title><rect x="730.1" y="357" width="1.7" height="15.0" fill="rgb(234,100,100)" rx="2" ry="2" />
<text  x="733.07" y="367.5" ></text>
</g>
<g >
<title>JavaThread::run (377,682,297 samples, 0.06%)</title><rect x="1186.4" y="341" width="0.7" height="15.0" fill="rgb(203,203,60)" rx="2" ry="2" />
<text  x="1189.37" y="351.5" ></text>
</g>
<g >
<title>ThreadRootsTask::do_it (152,589,279 samples, 0.02%)</title><rect x="1189.3" y="325" width="0.3" height="15.0" fill="rgb(211,211,63)" rx="2" ry="2" />
<text  x="1192.33" y="335.5" ></text>
</g>
<g >
<title>ciTypeFlow::df_flow_types (213,243,399 samples, 0.03%)</title><rect x="1186.4" y="165" width="0.4" height="15.0" fill="rgb(205,205,61)" rx="2" ry="2" />
<text  x="1189.37" y="175.5" ></text>
</g>
<g >
<title>Lspec/benchmarks/compress/Decompressor:::decompress (149,854,321,873 samples, 23.61%)</title><rect x="826.8" y="373" width="278.7" height="15.0" fill="rgb(87,234,87)" rx="2" ry="2" />
<text  x="829.83" y="383.5" >Lspec/benchmarks/compress/Decompresso..</text>
</g>
<g >
<title>C2_CompilerThre (378,889,109 samples, 0.06%)</title><rect x="1186.4" y="389" width="0.7" height="15.0" fill="rgb(225,87,87)" rx="2" ry="2" />
<text  x="1189.37" y="399.5" ></text>
</g>
<g >
<title>tick_sched_timer (106,000,081 samples, 0.02%)</title><rect x="1105.1" y="277" width="0.2" height="15.0" fill="rgb(233,99,99)" rx="2" ry="2" />
<text  x="1108.06" y="287.5" ></text>
</g>
<g >
<title>tick_sched_handle (106,000,081 samples, 0.02%)</title><rect x="1105.1" y="261" width="0.2" height="15.0" fill="rgb(233,99,99)" rx="2" ry="2" />
<text  x="1108.06" y="271.5" ></text>
</g>
<g >
<title>ciTypeFlow::StateVector::apply_one_bytecode (213,243,399 samples, 0.03%)</title><rect x="1186.4" y="133" width="0.4" height="15.0" fill="rgb(205,205,61)" rx="2" ry="2" />
<text  x="1189.37" y="143.5" ></text>
</g>
<g >
<title>BenchmarkThread (632,625,320,184 samples, 99.69%)</title><rect x="10.0" y="389" width="1176.4" height="15.0" fill="rgb(239,107,107)" rx="2" ry="2" />
<text  x="13.00" y="399.5" >BenchmarkThread</text>
</g>
<g >
<title>SpinPause (208,704,166 samples, 0.03%)</title><rect x="1189.6" y="309" width="0.4" height="15.0" fill="rgb(239,108,108)" rx="2" ry="2" />
<text  x="1192.61" y="319.5" ></text>
</g>
<g >
<title>java_start (377,682,297 samples, 0.06%)</title><rect x="1186.4" y="357" width="0.7" height="15.0" fill="rgb(224,86,86)" rx="2" ry="2" />
<text  x="1189.37" y="367.5" ></text>
</g>
<g >
<title>__schedule (88,439,444 samples, 0.01%)</title><rect x="1105.3" y="245" width="0.1" height="15.0" fill="rgb(231,95,95)" rx="2" ry="2" />
<text  x="1108.26" y="255.5" ></text>
</g>
<g >
<title>java_start (70,676,720 samples, 0.01%)</title><rect x="1186.2" y="357" width="0.2" height="15.0" fill="rgb(224,86,86)" rx="2" ry="2" />
<text  x="1189.24" y="367.5" ></text>
</g>
<g >
<title>sysvec_call_function_single (913,230,196 samples, 0.14%)</title><rect x="730.1" y="341" width="1.7" height="15.0" fill="rgb(240,108,108)" rx="2" ry="2" />
<text  x="733.07" y="351.5" ></text>
</g>
<g >
<title>ciTypeFlow::flow_types (213,243,399 samples, 0.03%)</title><rect x="1186.4" y="181" width="0.4" height="15.0" fill="rgb(205,205,61)" rx="2" ry="2" />
<text  x="1189.37" y="191.5" ></text>
</g>
<g >
<title>update_process_times (70,241,157 samples, 0.01%)</title><rect x="729.7" y="245" width="0.1" height="15.0" fill="rgb(236,102,102)" rx="2" ry="2" />
<text  x="732.68" y="255.5" ></text>
</g>
<g >
<title>perf_event_task_tick (70,692,234 samples, 0.01%)</title><rect x="1105.1" y="213" width="0.1" height="15.0" fill="rgb(244,114,114)" rx="2" ry="2" />
<text  x="1108.06" y="223.5" ></text>
</g>
<g >
<title>PSPromotionManager::copy_to_survivor_space&lt;false&gt; (118,022,255 samples, 0.02%)</title><rect x="1187.8" y="293" width="0.2" height="15.0" fill="rgb(216,216,65)" rx="2" ry="2" />
<text  x="1190.80" y="303.5" ></text>
</g>
<g >
<title>JavaThread::thread_main_inner (70,676,720 samples, 0.01%)</title><rect x="1186.2" y="325" width="0.2" height="15.0" fill="rgb(203,203,60)" rx="2" ry="2" />
<text  x="1189.24" y="335.5" ></text>
</g>
<g >
<title>scheduler_tick (106,000,081 samples, 0.02%)</title><rect x="1105.1" y="229" width="0.2" height="15.0" fill="rgb(239,107,107)" rx="2" ry="2" />
<text  x="1108.06" y="239.5" ></text>
</g>
<g >
<title>sysvec_apic_timer_interrupt (194,439,525 samples, 0.03%)</title><rect x="1105.1" y="341" width="0.3" height="15.0" fill="rgb(240,108,108)" rx="2" ry="2" />
<text  x="1108.06" y="351.5" ></text>
</g>
<g >
<title>irqentry_exit_to_user_mode (71,742,953 samples, 0.01%)</title><rect x="729.9" y="309" width="0.2" height="15.0" fill="rgb(236,103,103)" rx="2" ry="2" />
<text  x="732.94" y="319.5" ></text>
</g>
<g >
<title>schedule (88,439,444 samples, 0.01%)</title><rect x="1105.3" y="261" width="0.1" height="15.0" fill="rgb(239,107,107)" rx="2" ry="2" />
<text  x="1108.26" y="271.5" ></text>
</g>
<g >
<title>JavaCalls::call_helper (70,676,720 samples, 0.01%)</title><rect x="1186.2" y="261" width="0.2" height="15.0" fill="rgb(203,203,60)" rx="2" ry="2" />
<text  x="1189.24" y="271.5" ></text>
</g>
<g >
<title>perf_adjust_freq_unthr_context (70,692,234 samples, 0.01%)</title><rect x="1105.1" y="197" width="0.1" height="15.0" fill="rgb(244,114,114)" rx="2" ry="2" />
<text  x="1108.06" y="207.5" ></text>
</g>
<g >
<title>tick_sched_handle (70,241,157 samples, 0.01%)</title><rect x="729.7" y="261" width="0.1" height="15.0" fill="rgb(233,99,99)" rx="2" ry="2" />
<text  x="732.68" y="271.5" ></text>
</g>
<g >
<title>schedule (71,742,953 samples, 0.01%)</title><rect x="729.9" y="261" width="0.2" height="15.0" fill="rgb(239,107,107)" rx="2" ry="2" />
<text  x="732.94" y="271.5" ></text>
</g>
<g >
<title>exit_to_user_mode_loop (71,742,953 samples, 0.01%)</title><rect x="729.9" y="277" width="0.2" height="15.0" fill="rgb(234,99,99)" rx="2" ry="2" />
<text  x="732.94" y="287.5" ></text>
</g>
<g >
<title>Lspec/benchmarks/compress/Compressor:::output (16,956,906,031 samples, 2.67%)</title><rect x="1105.7" y="357" width="31.5" height="15.0" fill="rgb(87,234,87)" rx="2" ry="2" />
<text  x="1108.68" y="367.5" >Ls..</text>
</g>
<g >
<title>all (634,578,824,064 samples, 100%)</title><rect x="10.0" y="405" width="1180.0" height="15.0" fill="rgb(255,130,130)" rx="2" ry="2" />
<text  x="13.00" y="415.5" ></text>
</g>
<g >
<title>update_process_times (106,000,081 samples, 0.02%)</title><rect x="1105.1" y="245" width="0.2" height="15.0" fill="rgb(236,102,102)" rx="2" ry="2" />
<text  x="1108.06" y="255.5" ></text>
</g>
<g >
<title>start_thread (208,704,166 samples, 0.03%)</title><rect x="1189.6" y="373" width="0.4" height="15.0" fill="rgb(237,104,104)" rx="2" ry="2" />
<text  x="1192.61" y="383.5" ></text>
</g>
<g >
<title>Lspec/benchmarks/compress/Compressor:::clBlock (423,987,802 samples, 0.07%)</title><rect x="731.8" y="373" width="0.8" height="15.0" fill="rgb(87,234,87)" rx="2" ry="2" />
<text  x="734.77" y="383.5" ></text>
</g>
<g >
<title>[unknown] (43,354,681,025 samples, 6.83%)</title><rect x="1105.6" y="373" width="80.6" height="15.0" fill="rgb(243,112,112)" rx="2" ry="2" />
<text  x="1108.55" y="383.5" >[unknown]</text>
</g>
<g >
<title>__sysvec_apic_timer_interrupt (106,000,081 samples, 0.02%)</title><rect x="1105.1" y="325" width="0.2" height="15.0" fill="rgb(231,95,95)" rx="2" ry="2" />
<text  x="1108.06" y="335.5" ></text>
</g>
</g>
</svg>
